<svg width="78" height="29" viewBox="0 0 78 29" fill="none" xmlns="http://www.w3.org/2000/svg">
<rect width="78" height="29" rx="5" fill="#456C98"/>
<path d="M22.9922 20H21.0938V8H22.9922V20ZM24.7109 15.6953C24.7109 14.8672 24.875 14.1224 25.2031 13.4609C25.5312 12.7943 25.9922 12.2839 26.5859 11.9297C27.1797 11.5703 27.862 11.3906 28.6328 11.3906C29.7734 11.3906 30.6979 11.7578 31.4062 12.4922C32.1198 13.2266 32.5052 14.2005 32.5625 15.4141L32.5703 15.8594C32.5703 16.6927 32.4089 17.4375 32.0859 18.0938C31.7682 18.75 31.3099 19.2578 30.7109 19.6172C30.1172 19.9766 29.4297 20.1562 28.6484 20.1562C27.4557 20.1562 26.5 19.7604 25.7812 18.9688C25.0677 18.1719 24.7109 17.112 24.7109 15.7891V15.6953ZM26.6094 15.8594C26.6094 16.7292 26.7891 17.4115 27.1484 17.9062C27.5078 18.3958 28.0078 18.6406 28.6484 18.6406C29.2891 18.6406 29.7865 18.3906 30.1406 17.8906C30.5 17.3906 30.6797 16.6589 30.6797 15.6953C30.6797 14.8411 30.4948 14.1641 30.125 13.6641C29.7604 13.1641 29.263 12.9141 28.6328 12.9141C28.013 12.9141 27.5208 13.1615 27.1562 13.6562C26.7917 14.1458 26.6094 14.8802 26.6094 15.8594ZM33.8438 15.7109C33.8438 14.3984 34.151 13.3516 34.7656 12.5703C35.3854 11.7839 36.2057 11.3906 37.2266 11.3906C38.1901 11.3906 38.9479 11.7266 39.5 12.3984L39.5859 11.5469H41.2969V19.7422C41.2969 20.8516 40.9505 21.7266 40.2578 22.3672C39.5703 23.0078 38.6406 23.3281 37.4688 23.3281C36.849 23.3281 36.2422 23.1979 35.6484 22.9375C35.0599 22.6823 34.612 22.3464 34.3047 21.9297L35.2031 20.7891C35.7865 21.4818 36.5052 21.8281 37.3594 21.8281C37.9896 21.8281 38.487 21.6562 38.8516 21.3125C39.2161 20.974 39.3984 20.474 39.3984 19.8125V19.2422C38.8516 19.8516 38.1224 20.1562 37.2109 20.1562C36.2214 20.1562 35.4115 19.763 34.7812 18.9766C34.1562 18.1901 33.8438 17.1016 33.8438 15.7109ZM35.7344 15.875C35.7344 16.724 35.9062 17.3932 36.25 17.8828C36.599 18.3672 37.0807 18.6094 37.6953 18.6094C38.4609 18.6094 39.0286 18.2812 39.3984 17.625V13.9062C39.0391 13.2656 38.4766 12.9453 37.7109 12.9453C37.0859 12.9453 36.599 13.1927 36.25 13.6875C35.9062 14.1823 35.7344 14.9115 35.7344 15.875ZM49.2578 20H47.3594V11.5469H49.2578V20ZM47.2422 9.35156C47.2422 9.0599 47.3333 8.81771 47.5156 8.625C47.7031 8.43229 47.9688 8.33594 48.3125 8.33594C48.6562 8.33594 48.9219 8.43229 49.1094 8.625C49.2969 8.81771 49.3906 9.0599 49.3906 9.35156C49.3906 9.63802 49.2969 9.8776 49.1094 10.0703C48.9219 10.2578 48.6562 10.3516 48.3125 10.3516C47.9688 10.3516 47.7031 10.2578 47.5156 10.0703C47.3333 9.8776 47.2422 9.63802 47.2422 9.35156ZM53.0938 11.5469L53.1484 12.5234C53.7734 11.7682 54.5938 11.3906 55.6094 11.3906C57.3698 11.3906 58.2656 12.3984 58.2969 14.4141V20H56.3984V14.5234C56.3984 13.987 56.2812 13.5911 56.0469 13.3359C55.8177 13.0755 55.4401 12.9453 54.9141 12.9453C54.1484 12.9453 53.5781 13.2917 53.2031 13.9844V20H51.3047V11.5469H53.0938Z" fill="white"/>
</svg>
